{"asset":{"version":"2.0","generator":"Blockbench 5.1.4 glTF exporter"},"scenes":[{"nodes":[1,3,4,6,8,10,12],"name":"blockbench_export"}],"scene":0,"nodes":[{"name":"head"},{"translation":[0,1.5,0],"name":"head","mesh":0,"children":[0],"skin":0},{"name":"body"},{"translation":[0,1.5,0],"name":"body","mesh":1,"children":[2],"skin":1},{"name":"waist","mesh":2},{"name":"left_arm"},{"translation":[-0.3125,1.375,0],"name":"left_arm","mesh":3,"children":[5],"skin":2},{"name":"right_arm"},{"translation":[0.3125,1.375,0],"name":"right_arm","mesh":4,"children":[7],"skin":3},{"name":"left_leg"},{"translation":[-0.11875,0.75,0],"name":"left_leg","mesh":5,"children":[9],"skin":4},{"name":"right_leg"},{"translation":[0.11875,0.75,0],"name":"right_leg","mesh":6,"children":[11],"skin":5}],"bufferViews":[{"buffer":0,"byteOffset":0,"byteLength":432,"target":34962,"byteStride":12},{"buffer":0,"byteOffset":432,"byteLength":432,"target":34962,"byteStride":12},{"buffer":0,"byteOffset":864,"byteLength":288,"target":34962,"byteStride":8},{"buffer":0,"byteOffset":1152,"byteLength":288,"target":34962,"byteStride":8},{"buffer":0,"byteOffset":1440,"byteLength":576,"target":34962,"byteStride":16},{"buffer":0,"byteOffset":2016,"byteLength":72,"target":34963},{"buffer":0,"byteOffset":2088,"byteLength":432,"target":34962,"byteStride":12},{"buffer":0,"byteOffset":2520,"byteLength":432,"target":34962,"byteStride":12},{"buffer":0,"byteOffset":2952,"byteLength":288,"target":34962,"byteStride":8},{"buffer":0,"byteOffset":3240,"byteLength":288,"target":34962,"byteStride":8},{"buffer":0,"byteOffset":3528,"byteLength":576,"target":34962,"byteStride":16},{"buffer":0,"byteOffset":4104,"byteLength":72,"target":34963},{"buffer":0,"byteOffset":4176,"byteLength":432,"target":34962,"byteStride":12},{"buffer":0,"byteOffset":4608,"byteLength":432,"target":34962,"byteStride":12},{"buffer":0,"byteOffset":5040,"byteLength":288,"target":34962,"byteStride":8},{"buffer":0,"byteOffset":5328,"byteLength":72,"target":34963},{"buffer":0,"byteOffset":5400,"byteLength":432,"target":34962,"byteStride":12},{"buffer":0,"byteOffset":5832,"byteLength":432,"target":34962,"byteStride":12},{"buffer":0,"byteOffset":6264,"byteLength":288,"target":34962,"byteStride":8},{"buffer":0,"byteOffset":6552,"byteLength":288,"target":34962,"byteStride":8},{"buffer":0,"byteOffset":6840,"byteLength":576,"target":34962,"byteStride":16},{"buffer":0,"byteOffset":7416,"byteLength":72,"target":34963},{"buffer":0,"byteOffset":7488,"byteLength":432,"target":34962,"byteStride":12},{"buffer":0,"byteOffset":7920,"byteLength":432,"target":34962,"byteStride":12},{"buffer":0,"byteOffset":8352,"byteLength":288,"target":34962,"byteStride":8},{"buffer":0,"byteOffset":8640,"byteLength":288,"target":34962,"byteStride":8},{"buffer":0,"byteOffset":8928,"byteLength":576,"target":34962,"byteStride":16},{"buffer":0,"byteOffset":9504,"byteLength":72,"target":34963},{"buffer":0,"byteOffset":9576,"byteLength":864,"target":34962,"byteStride":12},{"buffer":0,"byteOffset":10440,"byteLength":864,"target":34962,"byteStride":12},{"buffer":0,"byteOffset":11304,"byteLength":576,"target":34962,"byteStride":8},{"buffer":0,"byteOffset":11880,"byteLength":576,"target":34962,"byteStride":8},{"buffer":0,"byteOffset":12456,"byteLength":1152,"target":34962,"byteStride":16},{"buffer":0,"byteOffset":13608,"byteLength":72,"target":34963},{"buffer":0,"byteOffset":13680,"byteLength":72,"target":34963},{"buffer":0,"byteOffset":13752,"byteLength":864,"target":34962,"byteStride":12},{"buffer":0,"byteOffset":14616,"byteLength":864,"target":34962,"byteStride":12},{"buffer":0,"byteOffset":15480,"byteLength":576,"target":34962,"byteStride":8},{"buffer":0,"byteOffset":16056,"byteLength":576,"target":34962,"byteStride":8},{"buffer":0,"byteOffset":16632,"byteLength":1152,"target":34962,"byteStride":16},{"buffer":0,"byteOffset":17784,"byteLength":72,"target":34963},{"buffer":0,"byteOffset":17856,"byteLength":72,"target":34963},{"buffer":0,"byteOffset":17928,"byteLength":64},{"buffer":0,"byteOffset":17992,"byteLength":64},{"buffer":0,"byteOffset":18056,"byteLength":64},{"buffer":0,"byteOffset":18120,"byteLength":64},{"buffer":0,"byteOffset":18184,"byteLength":64},{"buffer":0,"byteOffset":18248,"byteLength":64},{"buffer":0,"byteOffset":18312,"byteLength":20},{"buffer":0,"byteOffset":18332,"byteLength":80},{"buffer":0,"byteOffset":18412,"byteLength":20},{"buffer":0,"byteOffset":18432,"byteLength":80},{"buffer":0,"byteOffset":18512,"byteLength":20},{"buffer":0,"byteOffset":18532,"byteLength":80},{"buffer":0,"byteOffset":18612,"byteLength":20},{"buffer":0,"byteOffset":18632,"byteLength":80},{"buffer":0,"byteOffset":18712,"byteLength":20},{"buffer":0,"byteOffset":18732,"byteLength":80},{"buffer":0,"byteOffset":18812,"byteLength":16},{"buffer":0,"byteOffset":18828,"byteLength":64},{"buffer":0,"byteOffset":18892,"byteLength":8},{"buffer":0,"byteOffset":18900,"byteLength":24},{"buffer":0,"byteOffset":18924,"byteLength":16},{"buffer":0,"byteOffset":18940,"byteLength":64},{"buffer":0,"byteOffset":19004,"byteLength":8},{"buffer":0,"byteOffset":19012,"byteLength":24},{"buffer":0,"byteOffset":19036,"byteLength":4},{"buffer":0,"byteOffset":19040,"byteLength":16},{"buffer":0,"byteOffset":19056,"byteLength":8},{"buffer":0,"byteOffset":19064,"byteLength":32},{"buffer":0,"byteOffset":19096,"byteLength":12},{"buffer":0,"byteOffset":19108,"byteLength":48},{"buffer":0,"byteOffset":19156,"byteLength":12},{"buffer":0,"byteOffset":19168,"byteLength":48},{"buffer":0,"byteOffset":19216,"byteLength":12},{"buffer":0,"byteOffset":19228,"byteLength":48}],"buffers":[{"byteLength":19276,"uri":"data:application/octet-stream;base64,"}],"accessors":[{"bufferView":0,"componentType":5126,"count":36,"max":[0.296875,0.484375,0.296875],"min":[-0.296875,-0.109375,-0.296875],"type":"VEC3"},{"bufferView":1,"componentType":5126,"count":36,"max":[1,1,1],"min":[-1,-1,-1],"type":"VEC3"},{"bufferView":2,"componentType":5126,"count":36,"max":[0.499755859375,0.49951171875],"min":[0.000244140625,0.00048828125],"type":"VEC2"},{"bufferView":3,"componentType":5123,"count":36,"max":[0,0,0,0],"min":[0,0,0,0],"type":"VEC4"},{"bufferView":4,"componentType":5126,"count":36,"max":[0,1,0,0],"min":[0,1,0,0],"type":"VEC4"},{"bufferView":5,"componentType":5123,"count":36,"max":[35],"min":[0],"type":"SCALAR"},{"bufferView":6,"componentType":5126,"count":36,"max":[0.296875,0.046875,0.171875],"min":[-0.296875,-0.796875,-0.171875],"type":"VEC3"},{"bufferView":7,"componentType":5126,"count":36,"max":[1,1,1],"min":[-1,-1,-1],"type":"VEC3"},{"bufferView":8,"componentType":5126,"count":36,"max":[0.624755859375,0.99951171875],"min":[0.250244140625,0.50048828125],"type":"VEC2"},{"bufferView":9,"componentType":5123,"count":36,"max":[0,0,0,0],"min":[0,0,0,0],"type":"VEC4"},{"bufferView":10,"componentType":5126,"count":36,"max":[0,1,0,0],"min":[0,1,0,0],"type":"VEC4"},{"bufferView":11,"componentType":5123,"count":36,"max":[35],"min":[0],"type":"SCALAR"},{"bufferView":12,"componentType":5126,"count":36,"max":[0.28125,1.53125,0.15625],"min":[-0.28125,0.71875,-0.15625],"type":"VEC3"},{"bufferView":13,"componentType":5126,"count":36,"max":[1,1,1],"min":[-1,-1,-1],"type":"VEC3"},{"bufferView":14,"componentType":5126,"count":36,"max":[0.624755859375,0.99951171875],"min":[0.250244140625,0.50048828125],"type":"VEC2"},{"bufferView":15,"componentType":5123,"count":36,"max":[35],"min":[0],"type":"SCALAR"},{"bufferView":16,"componentType":5126,"count":36,"max":[0.109375,0.171875,0.171875],"min":[-0.234375,-0.671875,-0.171875],"type":"VEC3"},{"bufferView":17,"componentType":5126,"count":36,"max":[1,1,1],"min":[-1,-1,-1],"type":"VEC3"},{"bufferView":18,"componentType":5126,"count":36,"max":[0.874755859375,0.99951171875],"min":[0.625244140625,0.50048828125],"type":"VEC2"},{"bufferView":19,"componentType":5123,"count":36,"max":[0,0,0,0],"min":[0,0,0,0],"type":"VEC4"},{"bufferView":20,"componentType":5126,"count":36,"max":[0,1,0,0],"min":[0,1,0,0],"type":"VEC4"},{"bufferView":21,"componentType":5123,"count":36,"max":[35],"min":[0],"type":"SCALAR"},{"bufferView":22,"componentType":5126,"count":36,"max":[0.234375,0.171875,0.171875],"min":[-0.109375,-0.671875,-0.171875],"type":"VEC3"},{"bufferView":23,"componentType":5126,"count":36,"max":[1,1,1],"min":[-1,-1,-1],"type":"VEC3"},{"bufferView":24,"componentType":5126,"count":36,"max":[0.874755859375,0.99951171875],"min":[0.625244140625,0.50048828125],"type":"VEC2"},{"bufferView":25,"componentType":5123,"count":36,"max":[0,0,0,0],"min":[0,0,0,0],"type":"VEC4"},{"bufferView":26,"componentType":5126,"count":36,"max":[0,1,0,0],"min":[0,1,0,0],"type":"VEC4"},{"bufferView":27,"componentType":5123,"count":36,"max":[35],"min":[0],"type":"SCALAR"},{"bufferView":28,"componentType":5126,"count":72,"max":[0.171875,0.046875,0.171875],"min":[-0.171875,-0.796875,-0.171875],"type":"VEC3"},{"bufferView":29,"componentType":5126,"count":72,"max":[1,1,1],"min":[-1,-1,-1],"type":"VEC3"},{"bufferView":30,"componentType":5126,"count":72,"max":[0.249755859375,0.99951171875],"min":[0.000244140625,0.50048828125],"type":"VEC2"},{"bufferView":31,"componentType":5123,"count":72,"max":[0,0,0,0],"min":[0,0,0,0],"type":"VEC4"},{"bufferView":32,"componentType":5126,"count":72,"max":[0,1,0,0],"min":[0,1,0,0],"type":"VEC4"},{"bufferView":33,"componentType":5123,"count":36,"max":[35],"min":[0],"type":"SCALAR"},{"bufferView":34,"componentType":5123,"count":36,"max":[71],"min":[36],"type":"SCALAR"},{"bufferView":35,"componentType":5126,"count":72,"max":[0.171875,0.046875,0.171875],"min":[-0.171875,-0.796875,-0.171875],"type":"VEC3"},{"bufferView":36,"componentType":5126,"count":72,"max":[1,1,1],"min":[-1,-1,-1],"type":"VEC3"},{"bufferView":37,"componentType":5126,"count":72,"max":[0.249755859375,0.99951171875],"min":[0.000244140625,0.50048828125],"type":"VEC2"},{"bufferView":38,"componentType":5123,"count":72,"max":[0,0,0,0],"min":[0,0,0,0],"type":"VEC4"},{"bufferView":39,"componentType":5126,"count":72,"max":[0,1,0,0],"min":[0,1,0,0],"type":"VEC4"},{"bufferView":40,"componentType":5123,"count":36,"max":[35],"min":[0],"type":"SCALAR"},{"bufferView":41,"componentType":5123,"count":36,"max":[71],"min":[36],"type":"SCALAR"},{"bufferView":42,"componentType":5126,"count":1,"max":[1,0,0,0,0,1,0,0,0,0,1,0,0,0,0,1],"min":[1,0,0,0,0,1,0,0,0,0,1,0,0,0,0,1],"type":"MAT4"},{"bufferView":43,"componentType":5126,"count":1,"max":[1,0,0,0,0,1,0,0,0,0,1,0,0,0,0,1],"min":[1,0,0,0,0,1,0,0,0,0,1,0,0,0,0,1],"type":"MAT4"},{"bufferView":44,"componentType":5126,"count":1,"max":[1,0,0,0,0,1,0,0,0,0,1,0,0,0,0,1],"min":[1,0,0,0,0,1,0,0,0,0,1,0,0,0,0,1],"type":"MAT4"},{"bufferView":45,"componentType":5126,"count":1,"max":[1,0,0,0,0,1,0,0,0,0,1,0,0,0,0,1],"min":[1,0,0,0,0,1,0,0,0,0,1,0,0,0,0,1],"type":"MAT4"},{"bufferView":46,"componentType":5126,"count":1,"max":[1,0,0,0,0,1,0,0,0,0,1,0,0,0,0,1],"min":[1,0,0,0,0,1,0,0,0,0,1,0,0,0,0,1],"type":"MAT4"},{"bufferView":47,"componentType":5126,"count":1,"max":[1,0,0,0,0,1,0,0,0,0,1,0,0,0,0,1],"min":[1,0,0,0,0,1,0,0,0,0,1,0,0,0,0,1],"type":"MAT4"},{"bufferView":48,"componentType":5126,"count":5,"max":[1],"min":[0],"type":"SCALAR"},{"bufferView":49,"componentType":5126,"count":5,"max":[0.19509032368659973,0,0,1],"min":[-0.19509032368659973,0,0,0.9807852506637573],"type":"VEC4"},{"bufferView":50,"componentType":5126,"count":5,"max":[1],"min":[0],"type":"SCALAR"},{"bufferView":51,"componentType":5126,"count":5,"max":[0.19509032368659973,0,0,1],"min":[-0.3420201539993286,0,0,0.9396926164627075],"type":"VEC4"},{"bufferView":52,"componentType":5126,"count":5,"max":[1],"min":[0],"type":"SCALAR"},{"bufferView":53,"componentType":5126,"count":5,"max":[0.237685889005661,0,0,1],"min":[-0.237685889005661,0,0,0.9713420867919922],"type":"VEC4"},{"bufferView":54,"componentType":5126,"count":5,"max":[1],"min":[0],"type":"SCALAR"},{"bufferView":55,"componentType":5126,"count":5,"max":[0.258819043636322,0,0,1],"min":[-0.237685889005661,0,0,0.9659258127212524],"type":"VEC4"},{"bufferView":56,"componentType":5126,"count":5,"max":[1.5],"min":[0],"type":"SCALAR"},{"bufferView":57,"componentType":5126,"count":5,"max":[0,0,0,1],"min":[-0.19509032368659973,0,0,0.9807852506637573],"type":"VEC4"},{"bufferView":58,"componentType":5126,"count":4,"max":[1.5],"min":[0],"type":"SCALAR"},{"bufferView":59,"componentType":5126,"count":4,"max":[0.5753864645957947,0,0,1],"min":[0,-0.6351017355918884,-0.659345805644989,0.5017775297164917],"type":"VEC4"},{"bufferView":60,"componentType":5126,"count":2,"max":[1.5],"min":[0],"type":"SCALAR"},{"bufferView":61,"componentType":5126,"count":2,"max":[-0.3125,1.375,0],"min":[-0.3125,1.375,0],"type":"VEC3"},{"bufferView":62,"componentType":5126,"count":4,"max":[1.5],"min":[0],"type":"SCALAR"},{"bufferView":63,"componentType":5126,"count":4,"max":[0.5729163289070129,0.2520863711833954,0.4045829176902771,1],"min":[0,-0.3247126042842865,-0.3140966594219208,0.6667323708534241],"type":"VEC4"},{"bufferView":64,"componentType":5126,"count":2,"max":[1.5],"min":[0],"type":"SCALAR"},{"bufferView":65,"componentType":5126,"count":2,"max":[0.3125,1.375,0],"min":[0.3125,1.375,0],"type":"VEC3"},{"bufferView":66,"componentType":5126,"count":1,"max":[0],"min":[0],"type":"SCALAR"},{"bufferView":67,"componentType":5126,"count":1,"max":[0,0,0,1],"min":[0,0,0,1],"type":"VEC4"},{"bufferView":68,"componentType":5126,"count":2,"max":[1.5],"min":[0],"type":"SCALAR"},{"bufferView":69,"componentType":5126,"count":2,"max":[0,0,0,1],"min":[0,0,0,1],"type":"VEC4"},{"bufferView":70,"componentType":5126,"count":3,"max":[0.25],"min":[0],"type":"SCALAR"},{"bufferView":71,"componentType":5126,"count":3,"max":[0,0.10886687785387039,0,0.9940563440322876],"min":[0,-0.237685889005661,0,0.9713420867919922],"type":"VEC4"},{"bufferView":72,"componentType":5126,"count":3,"max":[0.25],"min":[0],"type":"SCALAR"},{"bufferView":73,"componentType":5126,"count":3,"max":[0.6755902171134949,0,0,0.9063078165054321],"min":[0.4226182699203491,0,0,0.7372773289680481],"type":"VEC4"},{"bufferView":74,"componentType":5126,"count":3,"max":[0.25],"min":[0],"type":"SCALAR"},{"bufferView":75,"componentType":5126,"count":3,"max":[0.659345805644989,0,0,0.9396926164627075],"min":[0.3420201539993286,0,0,0.751839816570282],"type":"VEC4"}],"materials":[{"pbrMetallicRoughness":{"metallicFactor":0,"roughnessFactor":1,"baseColorTexture":{"index":0}},"alphaMode":"MASK","alphaCutoff":0.05,"doubleSided":true},{"pbrMetallicRoughness":{"metallicFactor":0,"roughnessFactor":1,"baseColorTexture":{"index":1}},"alphaMode":"MASK","alphaCutoff":0.05,"doubleSided":true}],"textures":[{"sampler":0,"source":0},{"sampler":1,"source":1}],"samplers":[{"magFilter":9728,"minFilter":9728,"wrapS":33071,"wrapT":33071},{"magFilter":9728,"minFilter":9728,"wrapS":33071,"wrapT":33071}],"images":[{"mimeType":"image/png","uri":"data:image/png;base64,"},{"mimeType":"image/png","uri":"data:image/png;base64,"}],"meshes":[{"primitives":[{"mode":4,"attributes":{"POSITION":0,"NORMAL":1,"TEXCOORD_0":2,"JOINTS_0":3,"WEIGHTS_0":4},"indices":5,"material":0}]},{"primitives":[{"mode":4,"attributes":{"POSITION":6,"NORMAL":7,"TEXCOORD_0":8,"JOINTS_0":9,"WEIGHTS_0":10},"indices":11,"material":0}]},{"primitives":[{"mode":4,"attributes":{"POSITION":12,"NORMAL":13,"TEXCOORD_0":14},"indices":15,"material":1}]},{"primitives":[{"mode":4,"attributes":{"POSITION":16,"NORMAL":17,"TEXCOORD_0":18,"JOINTS_0":19,"WEIGHTS_0":20},"indices":21,"material":0}]},{"primitives":[{"mode":4,"attributes":{"POSITION":22,"NORMAL":23,"TEXCOORD_0":24,"JOINTS_0":25,"WEIGHTS_0":26},"indices":27,"material":0}]},{"primitives":[{"mode":4,"attributes":{"POSITION":28,"NORMAL":29,"TEXCOORD_0":30,"JOINTS_0":31,"WEIGHTS_0":32},"indices":33,"material":0},{"mode":4,"attributes":{"POSITION":28,"NORMAL":29,"TEXCOORD_0":30,"JOINTS_0":31,"WEIGHTS_0":32},"indices":34,"material":1}]},{"primitives":[{"mode":4,"attributes":{"POSITION":35,"NORMAL":36,"TEXCOORD_0":37,"JOINTS_0":38,"WEIGHTS_0":39},"indices":40,"material":0},{"mode":4,"attributes":{"POSITION":35,"NORMAL":36,"TEXCOORD_0":37,"JOINTS_0":38,"WEIGHTS_0":39},"indices":41,"material":1}]}],"skins":[{"inverseBindMatrices":42,"joints":[0],"skeleton":0},{"inverseBindMatrices":43,"joints":[2],"skeleton":2},{"inverseBindMatrices":44,"joints":[5],"skeleton":5},{"inverseBindMatrices":45,"joints":[7],"skeleton":7},{"inverseBindMatrices":46,"joints":[9],"skeleton":9},{"inverseBindMatrices":47,"joints":[11],"skeleton":11}],"animations":[{"name":"walk","samplers":[{"input":48,"output":49,"interpolation":"LINEAR"},{"input":50,"output":51,"interpolation":"LINEAR"},{"input":52,"output":53,"interpolation":"LINEAR"},{"input":54,"output":55,"interpolation":"LINEAR"}],"channels":[{"sampler":0,"target":{"node":5,"path":"rotation"}},{"sampler":1,"target":{"node":7,"path":"rotation"}},{"sampler":2,"target":{"node":9,"path":"rotation"}},{"sampler":3,"target":{"node":11,"path":"rotation"}}]},{"name":"incantation","samplers":[{"input":56,"output":57,"interpolation":"LINEAR"},{"input":58,"output":59,"interpolation":"LINEAR"},{"input":60,"output":61,"interpolation":"LINEAR"},{"input":62,"output":63,"interpolation":"LINEAR"},{"input":64,"output":65,"interpolation":"LINEAR"},{"input":66,"output":67,"interpolation":"LINEAR"},{"input":68,"output":69,"interpolation":"LINEAR"}],"channels":[{"sampler":0,"target":{"node":0,"path":"rotation"}},{"sampler":1,"target":{"node":5,"path":"rotation"}},{"sampler":2,"target":{"node":5,"path":"translation"}},{"sampler":3,"target":{"node":7,"path":"rotation"}},{"sampler":4,"target":{"node":7,"path":"translation"}},{"sampler":5,"target":{"node":9,"path":"rotation"}},{"sampler":6,"target":{"node":11,"path":"rotation"}}]},{"name":"fork","samplers":[{"input":70,"output":71,"interpolation":"LINEAR"},{"input":72,"output":73,"interpolation":"LINEAR"},{"input":74,"output":75,"interpolation":"LINEAR"}],"channels":[{"sampler":0,"target":{"node":0,"path":"rotation"}},{"sampler":1,"target":{"node":5,"path":"rotation"}},{"sampler":2,"target":{"node":7,"path":"rotation"}}]}]}
