{"asset":{"version":"2.0","generator":"Blockbench 5.1.4 glTF exporter"},"scenes":[{"nodes":[7],"name":"blockbench_export"}],"scene":0,"nodes":[{"translation":[0,1.5,0],"name":"head"},{"translation":[0,1.5,0],"name":"body"},{"translation":[-0.3125,1.375,0],"name":"left_arm"},{"translation":[0.3125,1.375,0],"name":"right_arm"},{"translation":[-0.11875,0.75,0],"name":"left_leg"},{"translation":[0.11875,0.75,0],"name":"right_leg"},{"name":"root","children":[0,1,2,3,4,5]},{"name":"root","mesh":0,"children":[6],"skin":0}],"bufferViews":[{"buffer":0,"byteOffset":0,"byteLength":3888,"target":34962,"byteStride":12},{"buffer":0,"byteOffset":3888,"byteLength":3888,"target":34962,"byteStride":12},{"buffer":0,"byteOffset":7776,"byteLength":2592,"target":34962,"byteStride":8},{"buffer":0,"byteOffset":10368,"byteLength":2592,"target":34962,"byteStride":8},{"buffer":0,"byteOffset":12960,"byteLength":5184,"target":34962,"byteStride":16},{"buffer":0,"byteOffset":18144,"byteLength":72,"target":34963},{"buffer":0,"byteOffset":18216,"byteLength":72,"target":34963},{"buffer":0,"byteOffset":18288,"byteLength":288,"target":34963},{"buffer":0,"byteOffset":18576,"byteLength":72,"target":34963},{"buffer":0,"byteOffset":18648,"byteLength":72,"target":34963},{"buffer":0,"byteOffset":18720,"byteLength":72,"target":34963},{"buffer":0,"byteOffset":18792,"byteLength":448},{"buffer":0,"byteOffset":19240,"byteLength":20},{"buffer":0,"byteOffset":19260,"byteLength":80},{"buffer":0,"byteOffset":19340,"byteLength":20},{"buffer":0,"byteOffset":19360,"byteLength":80},{"buffer":0,"byteOffset":19440,"byteLength":20},{"buffer":0,"byteOffset":19460,"byteLength":80},{"buffer":0,"byteOffset":19540,"byteLength":20},{"buffer":0,"byteOffset":19560,"byteLength":80},{"buffer":0,"byteOffset":19640,"byteLength":20},{"buffer":0,"byteOffset":19660,"byteLength":80},{"buffer":0,"byteOffset":19740,"byteLength":16},{"buffer":0,"byteOffset":19756,"byteLength":64},{"buffer":0,"byteOffset":19820,"byteLength":8},{"buffer":0,"byteOffset":19828,"byteLength":24},{"buffer":0,"byteOffset":19852,"byteLength":16},{"buffer":0,"byteOffset":19868,"byteLength":64},{"buffer":0,"byteOffset":19932,"byteLength":8},{"buffer":0,"byteOffset":19940,"byteLength":24},{"buffer":0,"byteOffset":19964,"byteLength":4},{"buffer":0,"byteOffset":19968,"byteLength":16},{"buffer":0,"byteOffset":19984,"byteLength":8},{"buffer":0,"byteOffset":19992,"byteLength":32},{"buffer":0,"byteOffset":20024,"byteLength":12},{"buffer":0,"byteOffset":20036,"byteLength":48},{"buffer":0,"byteOffset":20084,"byteLength":12},{"buffer":0,"byteOffset":20096,"byteLength":48},{"buffer":0,"byteOffset":20144,"byteLength":12},{"buffer":0,"byteOffset":20156,"byteLength":48}],"buffers":[{"byteLength":20204,"uri":"data:application/octet-stream;base64,"}],"accessors":[{"bufferView":0,"componentType":5126,"count":324,"max":[0.546875,1.984375,0.296875],"min":[-0.546875,-0.046875,-0.296875],"type":"VEC3"},{"bufferView":1,"componentType":5126,"count":324,"max":[1,1,1],"min":[-1,-1,-1],"type":"VEC3"},{"bufferView":2,"componentType":5126,"count":324,"max":[0.874755859375,0.99951171875],"min":[0.000244140625,0.00048828125],"type":"VEC2"},{"bufferView":3,"componentType":5123,"count":324,"max":[0,6,0,0],"min":[0,1,0,0],"type":"VEC4"},{"bufferView":4,"componentType":5126,"count":324,"max":[0,1,0,0],"min":[0,1,0,0],"type":"VEC4"},{"bufferView":5,"componentType":5123,"count":36,"max":[35],"min":[0],"type":"SCALAR"},{"bufferView":6,"componentType":5123,"count":36,"max":[71],"min":[36],"type":"SCALAR"},{"bufferView":7,"componentType":5123,"count":144,"max":[215],"min":[72],"type":"SCALAR"},{"bufferView":8,"componentType":5123,"count":36,"max":[251],"min":[216],"type":"SCALAR"},{"bufferView":9,"componentType":5123,"count":36,"max":[287],"min":[252],"type":"SCALAR"},{"bufferView":10,"componentType":5123,"count":36,"max":[323],"min":[288],"type":"SCALAR"},{"bufferView":11,"componentType":5126,"count":7,"max":[1,0,0,0,0,1,0,0,0,0,1,0,0.3125,0,0,1],"min":[1,0,0,0,0,1,0,0,0,0,1,0,-0.3125,-1.5,0,1],"type":"MAT4"},{"bufferView":12,"componentType":5126,"count":5,"max":[1],"min":[0],"type":"SCALAR"},{"bufferView":13,"componentType":5126,"count":5,"max":[0.19509032368659973,0,0,1],"min":[-0.19509032368659973,0,0,0.9807852506637573],"type":"VEC4"},{"bufferView":14,"componentType":5126,"count":5,"max":[1],"min":[0],"type":"SCALAR"},{"bufferView":15,"componentType":5126,"count":5,"max":[0.19509032368659973,0,0,1],"min":[-0.3420201539993286,0,0,0.9396926164627075],"type":"VEC4"},{"bufferView":16,"componentType":5126,"count":5,"max":[1],"min":[0],"type":"SCALAR"},{"bufferView":17,"componentType":5126,"count":5,"max":[0.237685889005661,0,0,1],"min":[-0.237685889005661,0,0,0.9713420867919922],"type":"VEC4"},{"bufferView":18,"componentType":5126,"count":5,"max":[1],"min":[0],"type":"SCALAR"},{"bufferView":19,"componentType":5126,"count":5,"max":[0.258819043636322,0,0,1],"min":[-0.237685889005661,0,0,0.9659258127212524],"type":"VEC4"},{"bufferView":20,"componentType":5126,"count":5,"max":[1.5],"min":[0],"type":"SCALAR"},{"bufferView":21,"componentType":5126,"count":5,"max":[0,0,0,1],"min":[-0.19509032368659973,0,0,0.9807852506637573],"type":"VEC4"},{"bufferView":22,"componentType":5126,"count":4,"max":[1.5],"min":[0],"type":"SCALAR"},{"bufferView":23,"componentType":5126,"count":4,"max":[0.5753864645957947,0,0,1],"min":[0,-0.6351017355918884,-0.659345805644989,0.5017775297164917],"type":"VEC4"},{"bufferView":24,"componentType":5126,"count":2,"max":[1.5],"min":[0],"type":"SCALAR"},{"bufferView":25,"componentType":5126,"count":2,"max":[-0.3125,1.375,0],"min":[-0.3125,1.375,0],"type":"VEC3"},{"bufferView":26,"componentType":5126,"count":4,"max":[1.5],"min":[0],"type":"SCALAR"},{"bufferView":27,"componentType":5126,"count":4,"max":[0.5729163289070129,0.2520863711833954,0.4045829176902771,1],"min":[0,-0.3247126042842865,-0.3140966594219208,0.6667323708534241],"type":"VEC4"},{"bufferView":28,"componentType":5126,"count":2,"max":[1.5],"min":[0],"type":"SCALAR"},{"bufferView":29,"componentType":5126,"count":2,"max":[0.3125,1.375,0],"min":[0.3125,1.375,0],"type":"VEC3"},{"bufferView":30,"componentType":5126,"count":1,"max":[0],"min":[0],"type":"SCALAR"},{"bufferView":31,"componentType":5126,"count":1,"max":[0,0,0,1],"min":[0,0,0,1],"type":"VEC4"},{"bufferView":32,"componentType":5126,"count":2,"max":[1.5],"min":[0],"type":"SCALAR"},{"bufferView":33,"componentType":5126,"count":2,"max":[0,0,0,1],"min":[0,0,0,1],"type":"VEC4"},{"bufferView":34,"componentType":5126,"count":3,"max":[0.25],"min":[0],"type":"SCALAR"},{"bufferView":35,"componentType":5126,"count":3,"max":[0,0.10886687785387039,0,0.9940563440322876],"min":[0,-0.237685889005661,0,0.9713420867919922],"type":"VEC4"},{"bufferView":36,"componentType":5126,"count":3,"max":[0.25],"min":[0],"type":"SCALAR"},{"bufferView":37,"componentType":5126,"count":3,"max":[0.6755902171134949,0,0,0.9063078165054321],"min":[0.4226182699203491,0,0,0.7372773289680481],"type":"VEC4"},{"bufferView":38,"componentType":5126,"count":3,"max":[0.25],"min":[0],"type":"SCALAR"},{"bufferView":39,"componentType":5126,"count":3,"max":[0.659345805644989,0,0,0.9396926164627075],"min":[0.3420201539993286,0,0,0.751839816570282],"type":"VEC4"}],"materials":[{"pbrMetallicRoughness":{"metallicFactor":0,"roughnessFactor":1,"baseColorTexture":{"index":0}},"alphaMode":"MASK","alphaCutoff":0.05,"doubleSided":true},{"pbrMetallicRoughness":{"metallicFactor":0,"roughnessFactor":1,"baseColorTexture":{"index":1}},"alphaMode":"MASK","alphaCutoff":0.05,"doubleSided":true}],"textures":[{"sampler":0,"source":0},{"sampler":1,"source":1}],"samplers":[{"magFilter":9728,"minFilter":9728,"wrapS":33071,"wrapT":33071},{"magFilter":9728,"minFilter":9728,"wrapS":33071,"wrapT":33071}],"images":[{"mimeType":"image/png","uri":"data:image/png;base64,"},{"mimeType":"image/png","uri":"data:image/png;base64,"}],"meshes":[{"primitives":[{"mode":4,"attributes":{"POSITION":0,"NORMAL":1,"TEXCOORD_0":2,"JOINTS_0":3,"WEIGHTS_0":4},"indices":5,"material":0},{"mode":4,"attributes":{"POSITION":0,"NORMAL":1,"TEXCOORD_0":2,"JOINTS_0":3,"WEIGHTS_0":4},"indices":6,"material":1},{"mode":4,"attributes":{"POSITION":0,"NORMAL":1,"TEXCOORD_0":2,"JOINTS_0":3,"WEIGHTS_0":4},"indices":7,"material":0},{"mode":4,"attributes":{"POSITION":0,"NORMAL":1,"TEXCOORD_0":2,"JOINTS_0":3,"WEIGHTS_0":4},"indices":8,"material":1},{"mode":4,"attributes":{"POSITION":0,"NORMAL":1,"TEXCOORD_0":2,"JOINTS_0":3,"WEIGHTS_0":4},"indices":9,"material":0},{"mode":4,"attributes":{"POSITION":0,"NORMAL":1,"TEXCOORD_0":2,"JOINTS_0":3,"WEIGHTS_0":4},"indices":10,"material":1}]}],"skins":[{"inverseBindMatrices":11,"joints":[6,0,1,2,3,4,5],"skeleton":6}],"animations":[{"name":"walk","samplers":[{"input":12,"output":13,"interpolation":"LINEAR"},{"input":14,"output":15,"interpolation":"LINEAR"},{"input":16,"output":17,"interpolation":"LINEAR"},{"input":18,"output":19,"interpolation":"LINEAR"}],"channels":[{"sampler":0,"target":{"node":2,"path":"rotation"}},{"sampler":1,"target":{"node":3,"path":"rotation"}},{"sampler":2,"target":{"node":4,"path":"rotation"}},{"sampler":3,"target":{"node":5,"path":"rotation"}}]},{"name":"incantation","samplers":[{"input":20,"output":21,"interpolation":"LINEAR"},{"input":22,"output":23,"interpolation":"LINEAR"},{"input":24,"output":25,"interpolation":"LINEAR"},{"input":26,"output":27,"interpolation":"LINEAR"},{"input":28,"output":29,"interpolation":"LINEAR"},{"input":30,"output":31,"interpolation":"LINEAR"},{"input":32,"output":33,"interpolation":"LINEAR"}],"channels":[{"sampler":0,"target":{"node":0,"path":"rotation"}},{"sampler":1,"target":{"node":2,"path":"rotation"}},{"sampler":2,"target":{"node":2,"path":"translation"}},{"sampler":3,"target":{"node":3,"path":"rotation"}},{"sampler":4,"target":{"node":3,"path":"translation"}},{"sampler":5,"target":{"node":4,"path":"rotation"}},{"sampler":6,"target":{"node":5,"path":"rotation"}}]},{"name":"fork","samplers":[{"input":34,"output":35,"interpolation":"LINEAR"},{"input":36,"output":37,"interpolation":"LINEAR"},{"input":38,"output":39,"interpolation":"LINEAR"}],"channels":[{"sampler":0,"target":{"node":0,"path":"rotation"}},{"sampler":1,"target":{"node":2,"path":"rotation"}},{"sampler":2,"target":{"node":3,"path":"rotation"}}]}]}
