{"asset":{"version":"2.0","generator":"Blockbench 5.1.4 glTF exporter"},"scenes":[{"nodes":[1,3,5,7,9,11],"name":"blockbench_export"}],"scene":0,"nodes":[{"name":"head"},{"translation":[0,1.5,0],"name":"head","mesh":0,"children":[0],"skin":0},{"name":"body"},{"translation":[0,1.5,0],"name":"body","mesh":1,"children":[2],"skin":1},{"name":"left_arm"},{"translation":[-0.3125,1.375,0],"name":"left_arm","mesh":2,"children":[4],"skin":2},{"name":"right_arm"},{"translation":[0.3125,1.375,0],"name":"right_arm","mesh":3,"children":[6],"skin":3},{"name":"left_leg"},{"translation":[-0.11875,0.75,0],"name":"left_leg","mesh":4,"children":[8],"skin":4},{"name":"right_leg"},{"translation":[0.11875,0.75,0],"name":"right_leg","mesh":5,"children":[10],"skin":5}],"bufferViews":[{"buffer":0,"byteOffset":0,"byteLength":432,"target":34962,"byteStride":12},{"buffer":0,"byteOffset":432,"byteLength":432,"target":34962,"byteStride":12},{"buffer":0,"byteOffset":864,"byteLength":288,"target":34962,"byteStride":8},{"buffer":0,"byteOffset":1152,"byteLength":288,"target":34962,"byteStride":8},{"buffer":0,"byteOffset":1440,"byteLength":576,"target":34962,"byteStride":16},{"buffer":0,"byteOffset":2016,"byteLength":72,"target":34963},{"buffer":0,"byteOffset":2088,"byteLength":864,"target":34962,"byteStride":12},{"buffer":0,"byteOffset":2952,"byteLength":864,"target":34962,"byteStride":12},{"buffer":0,"byteOffset":3816,"byteLength":576,"target":34962,"byteStride":8},{"buffer":0,"byteOffset":4392,"byteLength":576,"target":34962,"byteStride":8},{"buffer":0,"byteOffset":4968,"byteLength":1152,"target":34962,"byteStride":16},{"buffer":0,"byteOffset":6120,"byteLength":72,"target":34963},{"buffer":0,"byteOffset":6192,"byteLength":72,"target":34963},{"buffer":0,"byteOffset":6264,"byteLength":432,"target":34962,"byteStride":12},{"buffer":0,"byteOffset":6696,"byteLength":432,"target":34962,"byteStride":12},{"buffer":0,"byteOffset":7128,"byteLength":288,"target":34962,"byteStride":8},{"buffer":0,"byteOffset":7416,"byteLength":288,"target":34962,"byteStride":8},{"buffer":0,"byteOffset":7704,"byteLength":576,"target":34962,"byteStride":16},{"buffer":0,"byteOffset":8280,"byteLength":72,"target":34963},{"buffer":0,"byteOffset":8352,"byteLength":432,"target":34962,"byteStride":12},{"buffer":0,"byteOffset":8784,"byteLength":432,"target":34962,"byteStride":12},{"buffer":0,"byteOffset":9216,"byteLength":288,"target":34962,"byteStride":8},{"buffer":0,"byteOffset":9504,"byteLength":288,"target":34962,"byteStride":8},{"buffer":0,"byteOffset":9792,"byteLength":576,"target":34962,"byteStride":16},{"buffer":0,"byteOffset":10368,"byteLength":72,"target":34963},{"buffer":0,"byteOffset":10440,"byteLength":864,"target":34962,"byteStride":12},{"buffer":0,"byteOffset":11304,"byteLength":864,"target":34962,"byteStride":12},{"buffer":0,"byteOffset":12168,"byteLength":576,"target":34962,"byteStride":8},{"buffer":0,"byteOffset":12744,"byteLength":576,"target":34962,"byteStride":8},{"buffer":0,"byteOffset":13320,"byteLength":1152,"target":34962,"byteStride":16},{"buffer":0,"byteOffset":14472,"byteLength":72,"target":34963},{"buffer":0,"byteOffset":14544,"byteLength":72,"target":34963},{"buffer":0,"byteOffset":14616,"byteLength":864,"target":34962,"byteStride":12},{"buffer":0,"byteOffset":15480,"byteLength":864,"target":34962,"byteStride":12},{"buffer":0,"byteOffset":16344,"byteLength":576,"target":34962,"byteStride":8},{"buffer":0,"byteOffset":16920,"byteLength":576,"target":34962,"byteStride":8},{"buffer":0,"byteOffset":17496,"byteLength":1152,"target":34962,"byteStride":16},{"buffer":0,"byteOffset":18648,"byteLength":72,"target":34963},{"buffer":0,"byteOffset":18720,"byteLength":72,"target":34963},{"buffer":0,"byteOffset":18792,"byteLength":64},{"buffer":0,"byteOffset":18856,"byteLength":64},{"buffer":0,"byteOffset":18920,"byteLength":64},{"buffer":0,"byteOffset":18984,"byteLength":64},{"buffer":0,"byteOffset":19048,"byteLength":64},{"buffer":0,"byteOffset":19112,"byteLength":64},{"buffer":0,"byteOffset":19176,"byteLength":20},{"buffer":0,"byteOffset":19196,"byteLength":80},{"buffer":0,"byteOffset":19276,"byteLength":20},{"buffer":0,"byteOffset":19296,"byteLength":80},{"buffer":0,"byteOffset":19376,"byteLength":20},{"buffer":0,"byteOffset":19396,"byteLength":80},{"buffer":0,"byteOffset":19476,"byteLength":20},{"buffer":0,"byteOffset":19496,"byteLength":80},{"buffer":0,"byteOffset":19576,"byteLength":20},{"buffer":0,"byteOffset":19596,"byteLength":80},{"buffer":0,"byteOffset":19676,"byteLength":16},{"buffer":0,"byteOffset":19692,"byteLength":64},{"buffer":0,"byteOffset":19756,"byteLength":8},{"buffer":0,"byteOffset":19764,"byteLength":24},{"buffer":0,"byteOffset":19788,"byteLength":16},{"buffer":0,"byteOffset":19804,"byteLength":64},{"buffer":0,"byteOffset":19868,"byteLength":8},{"buffer":0,"byteOffset":19876,"byteLength":24},{"buffer":0,"byteOffset":19900,"byteLength":4},{"buffer":0,"byteOffset":19904,"byteLength":16},{"buffer":0,"byteOffset":19920,"byteLength":8},{"buffer":0,"byteOffset":19928,"byteLength":32},{"buffer":0,"byteOffset":19960,"byteLength":12},{"buffer":0,"byteOffset":19972,"byteLength":48},{"buffer":0,"byteOffset":20020,"byteLength":12},{"buffer":0,"byteOffset":20032,"byteLength":48},{"buffer":0,"byteOffset":20080,"byteLength":12},{"buffer":0,"byteOffset":20092,"byteLength":48}],"buffers":[{"byteLength":20140,"uri":"data:application/octet-stream;base64,"}],"accessors":[{"bufferView":0,"componentType":5126,"count":36,"max":[0.296875,0.484375,0.296875],"min":[-0.296875,-0.109375,-0.296875],"type":"VEC3"},{"bufferView":1,"componentType":5126,"count":36,"max":[1,1,1],"min":[-1,-1,-1],"type":"VEC3"},{"bufferView":2,"componentType":5126,"count":36,"max":[0.499755859375,0.49951171875],"min":[0.000244140625,0.00048828125],"type":"VEC2"},{"bufferView":3,"componentType":5123,"count":36,"max":[0,0,0,0],"min":[0,0,0,0],"type":"VEC4"},{"bufferView":4,"componentType":5126,"count":36,"max":[0,1,0,0],"min":[0,1,0,0],"type":"VEC4"},{"bufferView":5,"componentType":5123,"count":36,"max":[35],"min":[0],"type":"SCALAR"},{"bufferView":6,"componentType":5126,"count":72,"max":[0.296875,0.046875,0.171875],"min":[-0.296875,-0.796875,-0.171875],"type":"VEC3"},{"bufferView":7,"componentType":5126,"count":72,"max":[1,1,1],"min":[-1,-1,-1],"type":"VEC3"},{"bufferView":8,"componentType":5126,"count":72,"max":[0.624755859375,0.99951171875],"min":[0.250244140625,0.50048828125],"type":"VEC2"},{"bufferView":9,"componentType":5123,"count":72,"max":[0,0,0,0],"min":[0,0,0,0],"type":"VEC4"},{"bufferView":10,"componentType":5126,"count":72,"max":[0,1,0,0],"min":[0,1,0,0],"type":"VEC4"},{"bufferView":11,"componentType":5123,"count":36,"max":[35],"min":[0],"type":"SCALAR"},{"bufferView":12,"componentType":5123,"count":36,"max":[71],"min":[36],"type":"SCALAR"},{"bufferView":13,"componentType":5126,"count":36,"max":[0.109375,0.171875,0.171875],"min":[-0.234375,-0.671875,-0.171875],"type":"VEC3"},{"bufferView":14,"componentType":5126,"count":36,"max":[1,1,1],"min":[-1,-1,-1],"type":"VEC3"},{"bufferView":15,"componentType":5126,"count":36,"max":[0.874755859375,0.99951171875],"min":[0.625244140625,0.50048828125],"type":"VEC2"},{"bufferView":16,"componentType":5123,"count":36,"max":[0,0,0,0],"min":[0,0,0,0],"type":"VEC4"},{"bufferView":17,"componentType":5126,"count":36,"max":[0,1,0,0],"min":[0,1,0,0],"type":"VEC4"},{"bufferView":18,"componentType":5123,"count":36,"max":[35],"min":[0],"type":"SCALAR"},{"bufferView":19,"componentType":5126,"count":36,"max":[0.234375,0.171875,0.171875],"min":[-0.109375,-0.671875,-0.171875],"type":"VEC3"},{"bufferView":20,"componentType":5126,"count":36,"max":[1,1,1],"min":[-1,-1,-1],"type":"VEC3"},{"bufferView":21,"componentType":5126,"count":36,"max":[0.874755859375,0.99951171875],"min":[0.625244140625,0.50048828125],"type":"VEC2"},{"bufferView":22,"componentType":5123,"count":36,"max":[0,0,0,0],"min":[0,0,0,0],"type":"VEC4"},{"bufferView":23,"componentType":5126,"count":36,"max":[0,1,0,0],"min":[0,1,0,0],"type":"VEC4"},{"bufferView":24,"componentType":5123,"count":36,"max":[35],"min":[0],"type":"SCALAR"},{"bufferView":25,"componentType":5126,"count":72,"max":[0.171875,0.046875,0.171875],"min":[-0.171875,-0.796875,-0.171875],"type":"VEC3"},{"bufferView":26,"componentType":5126,"count":72,"max":[1,1,1],"min":[-1,-1,-1],"type":"VEC3"},{"bufferView":27,"componentType":5126,"count":72,"max":[0.249755859375,0.99951171875],"min":[0.000244140625,0.50048828125],"type":"VEC2"},{"bufferView":28,"componentType":5123,"count":72,"max":[0,0,0,0],"min":[0,0,0,0],"type":"VEC4"},{"bufferView":29,"componentType":5126,"count":72,"max":[0,1,0,0],"min":[0,1,0,0],"type":"VEC4"},{"bufferView":30,"componentType":5123,"count":36,"max":[35],"min":[0],"type":"SCALAR"},{"bufferView":31,"componentType":5123,"count":36,"max":[71],"min":[36],"type":"SCALAR"},{"bufferView":32,"componentType":5126,"count":72,"max":[0.171875,0.046875,0.171875],"min":[-0.171875,-0.796875,-0.171875],"type":"VEC3"},{"bufferView":33,"componentType":5126,"count":72,"max":[1,1,1],"min":[-1,-1,-1],"type":"VEC3"},{"bufferView":34,"componentType":5126,"count":72,"max":[0.249755859375,0.99951171875],"min":[0.000244140625,0.50048828125],"type":"VEC2"},{"bufferView":35,"componentType":5123,"count":72,"max":[0,0,0,0],"min":[0,0,0,0],"type":"VEC4"},{"bufferView":36,"componentType":5126,"count":72,"max":[0,1,0,0],"min":[0,1,0,0],"type":"VEC4"},{"bufferView":37,"componentType":5123,"count":36,"max":[35],"min":[0],"type":"SCALAR"},{"bufferView":38,"componentType":5123,"count":36,"max":[71],"min":[36],"type":"SCALAR"},{"bufferView":39,"componentType":5126,"count":1,"max":[1,0,0,0,0,1,0,0,0,0,1,0,0,0,0,1],"min":[1,0,0,0,0,1,0,0,0,0,1,0,0,0,0,1],"type":"MAT4"},{"bufferView":40,"componentType":5126,"count":1,"max":[1,0,0,0,0,1,0,0,0,0,1,0,0,0,0,1],"min":[1,0,0,0,0,1,0,0,0,0,1,0,0,0,0,1],"type":"MAT4"},{"bufferView":41,"componentType":5126,"count":1,"max":[1,0,0,0,0,1,0,0,0,0,1,0,0,0,0,1],"min":[1,0,0,0,0,1,0,0,0,0,1,0,0,0,0,1],"type":"MAT4"},{"bufferView":42,"componentType":5126,"count":1,"max":[1,0,0,0,0,1,0,0,0,0,1,0,0,0,0,1],"min":[1,0,0,0,0,1,0,0,0,0,1,0,0,0,0,1],"type":"MAT4"},{"bufferView":43,"componentType":5126,"count":1,"max":[1,0,0,0,0,1,0,0,0,0,1,0,0,0,0,1],"min":[1,0,0,0,0,1,0,0,0,0,1,0,0,0,0,1],"type":"MAT4"},{"bufferView":44,"componentType":5126,"count":1,"max":[1,0,0,0,0,1,0,0,0,0,1,0,0,0,0,1],"min":[1,0,0,0,0,1,0,0,0,0,1,0,0,0,0,1],"type":"MAT4"},{"bufferView":45,"componentType":5126,"count":5,"max":[1],"min":[0],"type":"SCALAR"},{"bufferView":46,"componentType":5126,"count":5,"max":[0.19509032368659973,0,0,1],"min":[-0.19509032368659973,0,0,0.9807852506637573],"type":"VEC4"},{"bufferView":47,"componentType":5126,"count":5,"max":[1],"min":[0],"type":"SCALAR"},{"bufferView":48,"componentType":5126,"count":5,"max":[0.19509032368659973,0,0,1],"min":[-0.3420201539993286,0,0,0.9396926164627075],"type":"VEC4"},{"bufferView":49,"componentType":5126,"count":5,"max":[1],"min":[0],"type":"SCALAR"},{"bufferView":50,"componentType":5126,"count":5,"max":[0.237685889005661,0,0,1],"min":[-0.237685889005661,0,0,0.9713420867919922],"type":"VEC4"},{"bufferView":51,"componentType":5126,"count":5,"max":[1],"min":[0],"type":"SCALAR"},{"bufferView":52,"componentType":5126,"count":5,"max":[0.258819043636322,0,0,1],"min":[-0.237685889005661,0,0,0.9659258127212524],"type":"VEC4"},{"bufferView":53,"componentType":5126,"count":5,"max":[1.5],"min":[0],"type":"SCALAR"},{"bufferView":54,"componentType":5126,"count":5,"max":[0,0,0,1],"min":[-0.19509032368659973,0,0,0.9807852506637573],"type":"VEC4"},{"bufferView":55,"componentType":5126,"count":4,"max":[1.5],"min":[0],"type":"SCALAR"},{"bufferView":56,"componentType":5126,"count":4,"max":[0.5753864645957947,0,0,1],"min":[0,-0.6351017355918884,-0.659345805644989,0.5017775297164917],"type":"VEC4"},{"bufferView":57,"componentType":5126,"count":2,"max":[1.5],"min":[0],"type":"SCALAR"},{"bufferView":58,"componentType":5126,"count":2,"max":[-0.3125,1.375,0],"min":[-0.3125,1.375,0],"type":"VEC3"},{"bufferView":59,"componentType":5126,"count":4,"max":[1.5],"min":[0],"type":"SCALAR"},{"bufferView":60,"componentType":5126,"count":4,"max":[0.5729163289070129,0.2520863711833954,0.4045829176902771,1],"min":[0,-0.3247126042842865,-0.3140966594219208,0.6667323708534241],"type":"VEC4"},{"bufferView":61,"componentType":5126,"count":2,"max":[1.5],"min":[0],"type":"SCALAR"},{"bufferView":62,"componentType":5126,"count":2,"max":[0.3125,1.375,0],"min":[0.3125,1.375,0],"type":"VEC3"},{"bufferView":63,"componentType":5126,"count":1,"max":[0],"min":[0],"type":"SCALAR"},{"bufferView":64,"componentType":5126,"count":1,"max":[0,0,0,1],"min":[0,0,0,1],"type":"VEC4"},{"bufferView":65,"componentType":5126,"count":2,"max":[1.5],"min":[0],"type":"SCALAR"},{"bufferView":66,"componentType":5126,"count":2,"max":[0,0,0,1],"min":[0,0,0,1],"type":"VEC4"},{"bufferView":67,"componentType":5126,"count":3,"max":[0.25],"min":[0],"type":"SCALAR"},{"bufferView":68,"componentType":5126,"count":3,"max":[0,0.10886687785387039,0,0.9940563440322876],"min":[0,-0.237685889005661,0,0.9713420867919922],"type":"VEC4"},{"bufferView":69,"componentType":5126,"count":3,"max":[0.25],"min":[0],"type":"SCALAR"},{"bufferView":70,"componentType":5126,"count":3,"max":[0.6755902171134949,0,0,0.9063078165054321],"min":[0.4226182699203491,0,0,0.7372773289680481],"type":"VEC4"},{"bufferView":71,"componentType":5126,"count":3,"max":[0.25],"min":[0],"type":"SCALAR"},{"bufferView":72,"componentType":5126,"count":3,"max":[0.659345805644989,0,0,0.9396926164627075],"min":[0.3420201539993286,0,0,0.751839816570282],"type":"VEC4"}],"materials":[{"pbrMetallicRoughness":{"metallicFactor":0,"roughnessFactor":1,"baseColorTexture":{"index":0}},"alphaMode":"MASK","alphaCutoff":0.05,"doubleSided":true},{"pbrMetallicRoughness":{"metallicFactor":0,"roughnessFactor":1,"baseColorTexture":{"index":1}},"alphaMode":"MASK","alphaCutoff":0.05,"doubleSided":true}],"textures":[{"sampler":0,"source":0},{"sampler":1,"source":1}],"samplers":[{"magFilter":9728,"minFilter":9728,"wrapS":33071,"wrapT":33071},{"magFilter":9728,"minFilter":9728,"wrapS":33071,"wrapT":33071}],"images":[{"mimeType":"image/png","uri":"data:image/png;base64,"},{"mimeType":"image/png","uri":"data:image/png;base64,"}],"meshes":[{"primitives":[{"mode":4,"attributes":{"POSITION":0,"NORMAL":1,"TEXCOORD_0":2,"JOINTS_0":3,"WEIGHTS_0":4},"indices":5,"material":0}]},{"primitives":[{"mode":4,"attributes":{"POSITION":6,"NORMAL":7,"TEXCOORD_0":8,"JOINTS_0":9,"WEIGHTS_0":10},"indices":11,"material":0},{"mode":4,"attributes":{"POSITION":6,"NORMAL":7,"TEXCOORD_0":8,"JOINTS_0":9,"WEIGHTS_0":10},"indices":12,"material":1}]},{"primitives":[{"mode":4,"attributes":{"POSITION":13,"NORMAL":14,"TEXCOORD_0":15,"JOINTS_0":16,"WEIGHTS_0":17},"indices":18,"material":0}]},{"primitives":[{"mode":4,"attributes":{"POSITION":19,"NORMAL":20,"TEXCOORD_0":21,"JOINTS_0":22,"WEIGHTS_0":23},"indices":24,"material":0}]},{"primitives":[{"mode":4,"attributes":{"POSITION":25,"NORMAL":26,"TEXCOORD_0":27,"JOINTS_0":28,"WEIGHTS_0":29},"indices":30,"material":0},{"mode":4,"attributes":{"POSITION":25,"NORMAL":26,"TEXCOORD_0":27,"JOINTS_0":28,"WEIGHTS_0":29},"indices":31,"material":1}]},{"primitives":[{"mode":4,"attributes":{"POSITION":32,"NORMAL":33,"TEXCOORD_0":34,"JOINTS_0":35,"WEIGHTS_0":36},"indices":37,"material":0},{"mode":4,"attributes":{"POSITION":32,"NORMAL":33,"TEXCOORD_0":34,"JOINTS_0":35,"WEIGHTS_0":36},"indices":38,"material":1}]}],"skins":[{"inverseBindMatrices":39,"joints":[0],"skeleton":0},{"inverseBindMatrices":40,"joints":[2],"skeleton":2},{"inverseBindMatrices":41,"joints":[4],"skeleton":4},{"inverseBindMatrices":42,"joints":[6],"skeleton":6},{"inverseBindMatrices":43,"joints":[8],"skeleton":8},{"inverseBindMatrices":44,"joints":[10],"skeleton":10}],"animations":[{"name":"walk","samplers":[{"input":45,"output":46,"interpolation":"LINEAR"},{"input":47,"output":48,"interpolation":"LINEAR"},{"input":49,"output":50,"interpolation":"LINEAR"},{"input":51,"output":52,"interpolation":"LINEAR"}],"channels":[{"sampler":0,"target":{"node":4,"path":"rotation"}},{"sampler":1,"target":{"node":6,"path":"rotation"}},{"sampler":2,"target":{"node":8,"path":"rotation"}},{"sampler":3,"target":{"node":10,"path":"rotation"}}]},{"name":"incantation","samplers":[{"input":53,"output":54,"interpolation":"LINEAR"},{"input":55,"output":56,"interpolation":"LINEAR"},{"input":57,"output":58,"interpolation":"LINEAR"},{"input":59,"output":60,"interpolation":"LINEAR"},{"input":61,"output":62,"interpolation":"LINEAR"},{"input":63,"output":64,"interpolation":"LINEAR"},{"input":65,"output":66,"interpolation":"LINEAR"}],"channels":[{"sampler":0,"target":{"node":0,"path":"rotation"}},{"sampler":1,"target":{"node":4,"path":"rotation"}},{"sampler":2,"target":{"node":4,"path":"translation"}},{"sampler":3,"target":{"node":6,"path":"rotation"}},{"sampler":4,"target":{"node":6,"path":"translation"}},{"sampler":5,"target":{"node":8,"path":"rotation"}},{"sampler":6,"target":{"node":10,"path":"rotation"}}]},{"name":"fork","samplers":[{"input":67,"output":68,"interpolation":"LINEAR"},{"input":69,"output":70,"interpolation":"LINEAR"},{"input":71,"output":72,"interpolation":"LINEAR"}],"channels":[{"sampler":0,"target":{"node":0,"path":"rotation"}},{"sampler":1,"target":{"node":4,"path":"rotation"}},{"sampler":2,"target":{"node":6,"path":"rotation"}}]}]}
