{"asset":{"version":"2.0","generator":"Blockbench 5.1.4 glTF exporter"},"scenes":[{"nodes":[7],"name":"blockbench_export"}],"scene":0,"nodes":[{"translation":[0,1.5,0],"name":"head"},{"translation":[0,1.5,0],"name":"body"},{"translation":[-0.25,1.4375,0],"name":"left_arm"},{"translation":[0.25,1.4375,0],"name":"right_arm"},{"translation":[0.125,0.75,0],"name":"right_leg"},{"translation":[-0.125,0.75,0],"name":"left_leg"},{"name":"root","children":[0,1,2,3,4,5]},{"name":"root","mesh":0,"children":[6],"skin":0}],"bufferViews":[{"buffer":0,"byteOffset":0,"byteLength":2592,"target":34962,"byteStride":12},{"buffer":0,"byteOffset":2592,"byteLength":2592,"target":34962,"byteStride":12},{"buffer":0,"byteOffset":5184,"byteLength":1728,"target":34962,"byteStride":8},{"buffer":0,"byteOffset":6912,"byteLength":1728,"target":34962,"byteStride":8},{"buffer":0,"byteOffset":8640,"byteLength":3456,"target":34962,"byteStride":16},{"buffer":0,"byteOffset":12096,"byteLength":432,"target":34963},{"buffer":0,"byteOffset":12528,"byteLength":448},{"buffer":0,"byteOffset":12976,"byteLength":20},{"buffer":0,"byteOffset":12996,"byteLength":80},{"buffer":0,"byteOffset":13076,"byteLength":20},{"buffer":0,"byteOffset":13096,"byteLength":80},{"buffer":0,"byteOffset":13176,"byteLength":20},{"buffer":0,"byteOffset":13196,"byteLength":80},{"buffer":0,"byteOffset":13276,"byteLength":20},{"buffer":0,"byteOffset":13296,"byteLength":80},{"buffer":0,"byteOffset":13376,"byteLength":20},{"buffer":0,"byteOffset":13396,"byteLength":80},{"buffer":0,"byteOffset":13476,"byteLength":16},{"buffer":0,"byteOffset":13492,"byteLength":64},{"buffer":0,"byteOffset":13556,"byteLength":8},{"buffer":0,"byteOffset":13564,"byteLength":24},{"buffer":0,"byteOffset":13588,"byteLength":16},{"buffer":0,"byteOffset":13604,"byteLength":64},{"buffer":0,"byteOffset":13668,"byteLength":8},{"buffer":0,"byteOffset":13676,"byteLength":24},{"buffer":0,"byteOffset":13700,"byteLength":8},{"buffer":0,"byteOffset":13708,"byteLength":32},{"buffer":0,"byteOffset":13740,"byteLength":4},{"buffer":0,"byteOffset":13744,"byteLength":16},{"buffer":0,"byteOffset":13760,"byteLength":12},{"buffer":0,"byteOffset":13772,"byteLength":48},{"buffer":0,"byteOffset":13820,"byteLength":12},{"buffer":0,"byteOffset":13832,"byteLength":48},{"buffer":0,"byteOffset":13880,"byteLength":12},{"buffer":0,"byteOffset":13892,"byteLength":48}],"buffers":[{"byteLength":13940,"uri":"data:application/octet-stream;base64,"}],"accessors":[{"bufferView":0,"componentType":5126,"count":216,"max":[0.5,2,0.25],"min":[-0.5,0,-0.25],"type":"VEC3"},{"bufferView":1,"componentType":5126,"count":216,"max":[1,1,1],"min":[-1,-1,-1],"type":"VEC3"},{"bufferView":2,"componentType":5126,"count":216,"max":[0.8747556209564209,0.9997556209564209],"min":[0.0002443749981466681,0.00024437904357910156],"type":"VEC2"},{"bufferView":3,"componentType":5123,"count":216,"max":[0,6,0,0],"min":[0,1,0,0],"type":"VEC4"},{"bufferView":4,"componentType":5126,"count":216,"max":[0,1,0,0],"min":[0,1,0,0],"type":"VEC4"},{"bufferView":5,"componentType":5123,"count":216,"max":[215],"min":[0],"type":"SCALAR"},{"bufferView":6,"componentType":5126,"count":7,"max":[1,0,0,0,0,1,0,0,0,0,1,0,0.25,0,0,1],"min":[1,0,0,0,0,1,0,0,0,0,1,0,-0.25,-1.5,0,1],"type":"MAT4"},{"bufferView":7,"componentType":5126,"count":5,"max":[1],"min":[0],"type":"SCALAR"},{"bufferView":8,"componentType":5126,"count":5,"max":[0.237685889005661,0,0,1],"min":[-0.237685889005661,0,0,0.9713420867919922],"type":"VEC4"},{"bufferView":9,"componentType":5126,"count":5,"max":[1],"min":[0],"type":"SCALAR"},{"bufferView":10,"componentType":5126,"count":5,"max":[0.19509032368659973,0,0,1],"min":[-0.19509032368659973,0,0,0.9807852506637573],"type":"VEC4"},{"bufferView":11,"componentType":5126,"count":5,"max":[1],"min":[0],"type":"SCALAR"},{"bufferView":12,"componentType":5126,"count":5,"max":[0.19509032368659973,0,0,1],"min":[-0.3420201539993286,0,0,0.9396926164627075],"type":"VEC4"},{"bufferView":13,"componentType":5126,"count":5,"max":[1],"min":[0],"type":"SCALAR"},{"bufferView":14,"componentType":5126,"count":5,"max":[0.258819043636322,0,0,1],"min":[-0.237685889005661,0,0,0.9659258127212524],"type":"VEC4"},{"bufferView":15,"componentType":5126,"count":5,"max":[1.5],"min":[0],"type":"SCALAR"},{"bufferView":16,"componentType":5126,"count":5,"max":[0,0,0,1],"min":[-0.19509032368659973,0,0,0.9807852506637573],"type":"VEC4"},{"bufferView":17,"componentType":5126,"count":4,"max":[1.5],"min":[0],"type":"SCALAR"},{"bufferView":18,"componentType":5126,"count":4,"max":[0.5753864645957947,0,0,1],"min":[0,-0.6351017355918884,-0.659345805644989,0.5017775297164917],"type":"VEC4"},{"bufferView":19,"componentType":5126,"count":2,"max":[1.5],"min":[0],"type":"SCALAR"},{"bufferView":20,"componentType":5126,"count":2,"max":[-0.25,1.4375,0],"min":[-0.25,1.4375,0],"type":"VEC3"},{"bufferView":21,"componentType":5126,"count":4,"max":[1.5],"min":[0],"type":"SCALAR"},{"bufferView":22,"componentType":5126,"count":4,"max":[0.5729163289070129,0.2520863711833954,0.4045829176902771,1],"min":[0,-0.3247126042842865,-0.3140966594219208,0.6667323708534241],"type":"VEC4"},{"bufferView":23,"componentType":5126,"count":2,"max":[1.5],"min":[0],"type":"SCALAR"},{"bufferView":24,"componentType":5126,"count":2,"max":[0.25,1.4375,0],"min":[0.25,1.4375,0],"type":"VEC3"},{"bufferView":25,"componentType":5126,"count":2,"max":[1.5],"min":[0],"type":"SCALAR"},{"bufferView":26,"componentType":5126,"count":2,"max":[0,0,0,1],"min":[0,0,0,1],"type":"VEC4"},{"bufferView":27,"componentType":5126,"count":1,"max":[0],"min":[0],"type":"SCALAR"},{"bufferView":28,"componentType":5126,"count":1,"max":[0,0,0,1],"min":[0,0,0,1],"type":"VEC4"},{"bufferView":29,"componentType":5126,"count":3,"max":[0.25],"min":[0],"type":"SCALAR"},{"bufferView":30,"componentType":5126,"count":3,"max":[0,0.10886687785387039,0,0.9940563440322876],"min":[0,-0.237685889005661,0,0.9713420867919922],"type":"VEC4"},{"bufferView":31,"componentType":5126,"count":3,"max":[0.25],"min":[0],"type":"SCALAR"},{"bufferView":32,"componentType":5126,"count":3,"max":[0.6755902171134949,0,0,0.9063078165054321],"min":[0.4226182699203491,0,0,0.7372773289680481],"type":"VEC4"},{"bufferView":33,"componentType":5126,"count":3,"max":[0.25],"min":[0],"type":"SCALAR"},{"bufferView":34,"componentType":5126,"count":3,"max":[0.659345805644989,0,0,0.9396926164627075],"min":[0.3420201539993286,0,0,0.751839816570282],"type":"VEC4"}],"materials":[{"pbrMetallicRoughness":{"metallicFactor":0,"roughnessFactor":1,"baseColorTexture":{"index":0}},"alphaMode":"MASK","alphaCutoff":0.05,"doubleSided":true}],"textures":[{"sampler":0,"source":0,"name":"player"}],"samplers":[{"magFilter":9728,"minFilter":9728,"wrapS":33071,"wrapT":33071}],"images":[{"mimeType":"image/png","name":"player","uri":"player.png"}],"meshes":[{"primitives":[{"mode":4,"attributes":{"POSITION":0,"NORMAL":1,"TEXCOORD_0":2,"JOINTS_0":3,"WEIGHTS_0":4},"indices":5,"material":0}]}],"skins":[{"inverseBindMatrices":6,"joints":[6,0,1,2,3,4,5],"skeleton":6}],"animations":[{"name":"walk","samplers":[{"input":7,"output":8,"interpolation":"LINEAR"},{"input":9,"output":10,"interpolation":"LINEAR"},{"input":11,"output":12,"interpolation":"LINEAR"},{"input":13,"output":14,"interpolation":"LINEAR"}],"channels":[{"sampler":0,"target":{"node":5,"path":"rotation"}},{"sampler":1,"target":{"node":2,"path":"rotation"}},{"sampler":2,"target":{"node":3,"path":"rotation"}},{"sampler":3,"target":{"node":4,"path":"rotation"}}]},{"name":"incantation","samplers":[{"input":15,"output":16,"interpolation":"LINEAR"},{"input":17,"output":18,"interpolation":"LINEAR"},{"input":19,"output":20,"interpolation":"LINEAR"},{"input":21,"output":22,"interpolation":"LINEAR"},{"input":23,"output":24,"interpolation":"LINEAR"},{"input":25,"output":26,"interpolation":"LINEAR"},{"input":27,"output":28,"interpolation":"LINEAR"}],"channels":[{"sampler":0,"target":{"node":0,"path":"rotation"}},{"sampler":1,"target":{"node":2,"path":"rotation"}},{"sampler":2,"target":{"node":2,"path":"translation"}},{"sampler":3,"target":{"node":3,"path":"rotation"}},{"sampler":4,"target":{"node":3,"path":"translation"}},{"sampler":5,"target":{"node":4,"path":"rotation"}},{"sampler":6,"target":{"node":5,"path":"rotation"}}]},{"name":"fork","samplers":[{"input":29,"output":30,"interpolation":"LINEAR"},{"input":31,"output":32,"interpolation":"LINEAR"},{"input":33,"output":34,"interpolation":"LINEAR"}],"channels":[{"sampler":0,"target":{"node":0,"path":"rotation"}},{"sampler":1,"target":{"node":2,"path":"rotation"}},{"sampler":2,"target":{"node":3,"path":"rotation"}}]}]}
